<?xml version="1.0" encoding="UTF-8" standalone="no"?><svg xmlns="http://www.w3.org/2000/svg" xmlns:xlink="http://www.w3.org/1999/xlink" contentScriptType="application/ecmascript" contentStyleType="text/css" height="887px" preserveAspectRatio="none" style="width:1105px;height:887px;background:#FFFFFF;" version="1.1" viewBox="0 0 1105 887" width="1105px" zoomAndPan="magnify"><defs><filter height="300%" id="fdeclhph9l9qr" width="300%" x="-1" y="-1"><feGaussianBlur result="blurOut" stdDeviation="2.0"/><feColorMatrix in="blurOut" result="blurOut2" type="matrix" values="0 0 0 0 0 0 0 0 0 0 0 0 0 0 0 0 0 0 .4 0"/><feOffset dx="4.0" dy="4.0" in="blurOut2" result="blurOut3"/><feBlend in="SourceGraphic" in2="blurOut3" mode="normal"/></filter></defs><g><ellipse cx="255.355" cy="195.671" fill="#FEFECE" filter="url(#fdeclhph9l9qr)" rx="76.355" ry="17.671" style="stroke:#A80036;stroke-width:1.5;"/><text fill="#000000" font-family="sans-serif" font-size="14" lengthAdjust="spacing" textLength="105" x="200.1233" y="200.1255">Nivana Story Arc</text><!--MD5=[641d44a12e17cbfd4c0f3e5606f8d47e]
entity marriage--><rect fill="#FEFECE" filter="url(#fdeclhph9l9qr)" height="37.6094" style="stroke:#000000;stroke-width:1.5;" width="191" x="557" y="409"/><text fill="#000000" font-family="sans-serif" font-size="14" lengthAdjust="spacing" textLength="171" x="567" y="433.5332">James and Adelle Marriage</text><!--MD5=[ac2af4ef0f62c216d2a8dd78314c32c1]
entity heroes--><rect fill="#FEFECE" filter="url(#fdeclhph9l9qr)" height="37.6094" style="stroke:#000000;stroke-width:1.5;" width="118" x="312.5" y="615"/><text fill="#000000" font-family="sans-serif" font-size="14" lengthAdjust="spacing" textLength="98" x="322.5" y="639.5332">Band of Heroes</text><!--MD5=[6cc973b4bc5cbb4a28b56d66fbfa72dd]
entity magicAgency--><rect fill="#FEFECE" filter="url(#fdeclhph9l9qr)" height="37.6094" style="stroke:#000000;stroke-width:1.5;" width="108" x="268.5" y="838"/><text fill="#000000" font-family="sans-serif" font-size="14" lengthAdjust="spacing" textLength="88" x="278.5" y="862.5332">Magic Agency</text><ellipse cx="458.5675" cy="52.2135" fill="#FEFECE" filter="url(#fdeclhph9l9qr)" rx="109.0675" ry="24.2135" style="stroke:#A80036;stroke-width:1.5;"/><text fill="#000000" font-family="sans-serif" font-size="14" lengthAdjust="spacing" textLength="181" x="368.0675" y="55.942">James Searching for Friends</text><ellipse cx="986.2982" cy="320.7596" fill="#FEFECE" filter="url(#fdeclhph9l9qr)" rx="106.7982" ry="23.7596" style="stroke:#A80036;stroke-width:1.5;"/><text fill="#000000" font-family="sans-serif" font-size="14" lengthAdjust="spacing" textLength="176" x="898.2982" y="324.4882">James Employed by Agency</text><ellipse cx="750.4382" cy="321.0876" fill="#FEFECE" filter="url(#fdeclhph9l9qr)" rx="93.4382" ry="21.0876" style="stroke:#A80036;stroke-width:1.5;"/><text fill="#000000" font-family="sans-serif" font-size="14" lengthAdjust="spacing" textLength="146" x="677.4382" y="324.8162">James and Adelle Meet</text><!--MD5=[c8dbb32d49d6c6c73e8a56ddc7c7b175]
entity conflictOverMagic--><path d="M141.3241,515.8748 C144.6114,510.1002 149.2306,510.6968 152.1109,516.262 C153.8083,509.2882 159.2066,509.1762 163.7659,513.2401 C166.4183,508.9652 170.9324,507.9633 173.8516,512.9496 C176.8274,506.4802 182.4898,506.8772 185.8698,512.5495 C188.546,506.6482 193.4736,507.6639 196.8032,511.8405 C199.8949,507.2462 203.4579,506.679 207.3277,510.9128 C211.7349,505.2482 215.5532,506.3743 219.0415,511.8767 C222.0549,506.3439 227.433,506.9227 230.6798,511.6109 C234.4323,507.1568 237.6162,508.0516 240.0883,512.9053 C244.3606,507.5636 249.2455,508.2801 252.2403,514.2747 C255.7754,509.6395 260.9093,509.7666 263.5126,515.3069 C266.9719,510.3106 271.5636,510.6143 273.7656,516.4924 C282.3781,519.1261 284.1392,525.2039 279.1725,532.4412 C284.6782,538.729 283.9409,544.999 275.5572,548.0749 C273.2327,554.0282 267.6329,554.8611 263.7758,549.6993 C260.5065,554.5863 255.0597,554.9428 252.2994,549.1523 C249.1936,554.1645 245.6043,556.1878 241.176,550.5311 C239.128,556.8037 235.8795,558.001 230.7183,553.5739 C226.9432,560.5871 222.5484,561.0843 217.852,554.4419 C214.6067,558.5619 211.3109,558.4194 208.5827,553.8879 C204.715,558.9795 201.0335,559.729 197.1742,553.8791 C193.3308,559.5506 188.7006,558.3728 185.6926,553.0099 C180.384,557.9937 176.3314,557.1766 173.5627,550.3919 C169.7915,555.6978 166.1839,555.2059 162.5337,550.2617 C158.7742,555.182 155.3271,554.256 152.8216,549.058 C149.0493,554.4838 142.924,555.6514 139.6038,548.5798 C132.2571,544.19 130.058,537.5987 138.6159,532.2469 C131.9284,525.67 131.5343,519.7261 141.3241,515.8748 " fill="#FEFECE" filter="url(#fdeclhph9l9qr)" style="stroke:#000000;stroke-width:1.5;"/><text fill="#000000" font-family="sans-serif" font-size="14" lengthAdjust="spacing" textLength="120" x="146.5" y="536.5332">Conflict over Magic</text><!--MD5=[8a7c3bc386ce199c4f6cdb8b4bae41f1]
entity tensionSS--><path d="M303.1857,723.0189 C305.3751,716.4325 309.5667,715.7779 314.4154,720.3404 C317.8856,713.9874 321.827,712.5877 326.9796,718.6358 C329.5094,713.5424 333.6727,712.0111 337.7005,717.0509 C340.8533,711.2517 344.2993,710.5885 348.9403,715.4874 C351.4099,710.1297 357.3176,709.6015 360.7641,714.3438 C363.8944,707.9373 368.4622,706.8994 373.6122,712.1101 C378.4342,707.8983 381.9097,708.0595 384.2321,714.5829 C389.0118,709.3756 393.8634,709.9461 396.8074,716.5393 C400.7678,712.4896 405.2123,713.2309 407.6164,718.37 C410.7931,713.4279 416.5184,713.4399 419.144,718.9762 C422.6052,713.8136 427.3508,715.0545 429.8423,720.0023 C435.4206,715.7417 439.6637,715.3322 442.1463,723.1546 C448.3783,725.0131 448.9017,728.445 445.2967,733.3447 C452.9854,735.3245 455.4706,740.8659 450.0158,747.2925 C453.9954,752.5074 453.7491,757.3607 446.3789,759.071 C451.3052,765.1804 450.1467,768.9709 442.51,771.0087 C439.6141,777.0924 434.7916,777.964 430.3594,772.6459 C425.8903,777.2272 421.2156,777.8448 417.9546,771.2991 C414.6373,775.867 411.627,776.6556 407.9717,771.6516 C404.2348,777.874 400.3758,778.531 395.558,772.7714 C392.0332,778.7333 388.3123,777.5893 384.3758,773.217 C380.4457,778.7911 376.3823,777.6603 373.4606,772.2179 C370.2532,777.8013 364.8079,778.2161 361.9966,771.8381 C358.817,779.0141 353.3129,778.231 349.2025,772.7814 C346.1557,777.6389 341.0378,777.0514 338.1649,772.5758 C334.419,778.3607 329.8246,776.9479 326.6923,771.9246 C322.7665,778.0172 316.8786,777.5962 313.8373,771.0266 C310.5906,776.5502 306.6966,777.0646 302.5549,771.9783 C294.8985,770 292.7774,765.1408 297.9137,758.6932 C291.8404,756.4205 290.12,750.5822 295.465,746.0909 C291.1836,740.4436 293.2752,735.8424 300.0418,734.5928 C295.9772,729.4204 296.024,725.1418 303.1857,723.0189 " fill="#FEFECE" filter="url(#fdeclhph9l9qr)" style="stroke:#000000;stroke-width:1.5;"/><text fill="#000000" font-family="sans-serif" font-size="14" lengthAdjust="spacing" textLength="108" x="309" y="742.5332">Tension between</text><text fill="#000000" font-family="sans-serif" font-size="14" lengthAdjust="spacing" textLength="125" x="309" y="760.1426">Secular and Sacred</text><ellipse cx="534.3923" cy="320.8785" fill="#FEFECE" filter="url(#fdeclhph9l9qr)" rx="87.3923" ry="19.8785" style="stroke:#A80036;stroke-width:1.5;"/><text fill="#000000" font-family="sans-serif" font-size="14" lengthAdjust="spacing" textLength="132" x="468.3923" y="324.607">Nivana Envies Adelle</text><ellipse cx="750.3704" cy="195.3963" fill="#FEFECE" filter="url(#fdeclhph9l9qr)" rx="17.8704" ry="14.8963" style="stroke:#A80036;stroke-width:1.5;"/><text fill="#000000" font-family="sans-serif" font-size="14" lengthAdjust="spacing" textLength="8" x="746.3704" y="199.1248">?</text><ellipse cx="318.3704" cy="427.8963" fill="#FEFECE" filter="url(#fdeclhph9l9qr)" rx="17.8704" ry="14.8963" style="stroke:#A80036;stroke-width:1.5;"/><text fill="#000000" font-family="sans-serif" font-size="14" lengthAdjust="spacing" textLength="8" x="314.3704" y="431.6248">?</text><ellipse cx="82.5391" cy="320.9034" fill="#FEFECE" filter="url(#fdeclhph9l9qr)" rx="76.5391" ry="27.9034" style="stroke:#A80036;stroke-width:1.5;"/><text fill="#000000" font-family="sans-serif" font-size="14" lengthAdjust="spacing" textLength="92" x="36.5391" y="315.8272">Nivana Hunted</text><text fill="#000000" font-family="sans-serif" font-size="14" lengthAdjust="spacing" textLength="74" x="45.5391" y="333.4366">by Agency?</text><ellipse cx="503.3704" cy="530.8963" fill="#FEFECE" filter="url(#fdeclhph9l9qr)" rx="17.8704" ry="14.8963" style="stroke:#A80036;stroke-width:1.5;"/><text fill="#000000" font-family="sans-serif" font-size="14" lengthAdjust="spacing" textLength="8" x="499.3704" y="534.6248">?</text><path d="M666.5,6 L666.5,97.7578 A0,0 0 0 0 666.5,97.7578 L746.5,97.7578 L750.5,180.5 L754.5,97.7578 L834.5,97.7578 A0,0 0 0 0 834.5,97.7578 L834.5,16 L824.5,6 L666.5,6 A0,0 0 0 0 666.5,6 " fill="#FBFB77" filter="url(#fdeclhph9l9qr)" style="stroke:#A80036;stroke-width:1.0;"/><path d="M824.5,6 L824.5,16 L834.5,16 L824.5,6 " fill="#FBFB77" style="stroke:#A80036;stroke-width:1.0;"/><text fill="#000000" font-family="sans-serif" font-size="13" lengthAdjust="spacing" textLength="104" x="672.5" y="24.4951">What pulls James</text><text fill="#000000" font-family="sans-serif" font-size="13" lengthAdjust="spacing" textLength="141" x="672.5" y="40.8467">back into the real world?</text><text fill="#000000" font-family="sans-serif" font-size="13" lengthAdjust="spacing" textLength="0" x="676.5" y="57.1982"/><text fill="#000000" font-family="sans-serif" font-size="13" lengthAdjust="spacing" textLength="143" x="672.5" y="73.5498">The impetus needs to be</text><text fill="#000000" font-family="sans-serif" font-size="13" lengthAdjust="spacing" textLength="147" x="672.5" y="89.9014">connected to other nodes</text><path d="M29,158 L29,233.4063 A0,0 0 0 0 29,233.4063 L78.5,233.4063 L82.5,292.64 L86.5,233.4063 L136,233.4063 A0,0 0 0 0 136,233.4063 L136,168 L126,158 L29,158 A0,0 0 0 0 29,158 " fill="#FBFB77" filter="url(#fdeclhph9l9qr)" style="stroke:#A80036;stroke-width:1.0;"/><path d="M126,158 L126,168 L136,168 L126,158 " fill="#FBFB77" style="stroke:#A80036;stroke-width:1.0;"/><text fill="#000000" font-family="sans-serif" font-size="13" lengthAdjust="spacing" textLength="86" x="35" y="176.4951">More particular</text><text fill="#000000" font-family="sans-serif" font-size="13" lengthAdjust="spacing" textLength="66" x="35" y="192.8467">relationship</text><text fill="#000000" font-family="sans-serif" font-size="13" lengthAdjust="spacing" textLength="72" x="35" y="209.1982">than Conflict</text><text fill="#000000" font-family="sans-serif" font-size="13" lengthAdjust="spacing" textLength="62" x="35" y="225.5498">over Magic</text><!--MD5=[70285fa90570b7b357eaed7c370d6c03]
link jamesSearching to question1--><path d="M501.9,74.03 C566.26,105.22 684.4,162.47 730.93,185.01 " fill="none" id="jamesSearching-to-question1" style="stroke:#A80036;stroke-width:1.0;"/><polygon fill="#A80036" points="735.46,187.21,729.112,179.6798,730.9625,185.0255,725.6168,186.8759,735.46,187.21" style="stroke:#A80036;stroke-width:1.0;"/><!--MD5=[f80228f0c254b9ba4a5a04530cb89b2d]
link question1 to jamesEmployed--><path d="M765.26,204.23 C799.81,222.31 887.08,267.97 941.12,296.25 " fill="none" id="question1-to-jamesEmployed" style="stroke:#A80036;stroke-width:1.0;"/><polygon fill="#A80036" points="945.59,298.59,939.4754,290.8691,941.1614,296.2689,935.7616,297.9549,945.59,298.59" style="stroke:#A80036;stroke-width:1.0;"/><!--MD5=[e57d4f3dadaac5c6e7eb5222346d4f35]
link question1 to jamesAndAdelleMeet--><path d="M750.5,210.67 C750.5,231.13 750.5,269.29 750.5,294.68 " fill="none" id="question1-to-jamesAndAdelleMeet" style="stroke:#A80036;stroke-width:1.0;"/><polygon fill="#A80036" points="750.5,299.89,754.5,290.89,750.5,294.89,746.5,290.89,750.5,299.89" style="stroke:#A80036;stroke-width:1.0;"/><!--MD5=[bdc1c65964da23d025ee776ff35e2517]
link jamesAndAdelleMeet to marriage--><path d="M732.07,341.75 C715.37,359.64 690.78,385.99 673.36,404.65 " fill="none" id="jamesAndAdelleMeet-to-marriage" style="stroke:#A80036;stroke-width:1.0;"/><polygon fill="#A80036" points="669.54,408.74,678.6056,404.891,672.9521,405.0852,672.7579,399.4317,669.54,408.74" style="stroke:#A80036;stroke-width:1.0;"/><!--MD5=[570b007b7e812eb2adfcfe7db85f52ce]
reverse link jamesEmployed to magicAgency--><path d="M965.19,348.78 C937.19,386.76 891.5,459.52 891.5,530 C891.5,530 891.5,530 891.5,635 C891.5,744.82 518.58,821.67 376.54,846.96 " fill="none" id="jamesEmployed-backto-magicAgency" style="stroke:#A80036;stroke-width:1.0;"/><polygon fill="#A80036" points="968.18,344.77,959.5882,349.5847,965.1868,348.7751,965.9964,354.3737,968.18,344.77" style="stroke:#A80036;stroke-width:1.0;"/><!--MD5=[342447fc50667165d6a146bba73ef3af]
link jamesEmployed to marriage--><path d="M926.4,340.89 C866.67,359.67 775.45,388.35 714.91,407.38 " fill="none" id="jamesEmployed-to-marriage" style="stroke:#A80036;stroke-width:1.0;"/><polygon fill="#A80036" points="709.88,408.96,719.6653,410.0768,714.6499,407.4605,717.2661,402.445,709.88,408.96" style="stroke:#A80036;stroke-width:1.0;"/><!--MD5=[0c0cd0cb5b0e84eadf7699dd219e52bf]
link heroes to tensionSS--><path d="M371.5,653.08 C371.5,667.85 371.5,689.21 371.5,707.57 " fill="none" id="heroes-to-tensionSS" style="stroke:#A80036;stroke-width:1.0;"/><polygon fill="#A80036" points="371.5,712.66,375.5,703.66,371.5,707.66,367.5,703.66,371.5,712.66" style="stroke:#A80036;stroke-width:1.0;"/><!--MD5=[c545f33ef43527deccd4d14f9703d673]
reverse link tensionSS to magicAgency--><path d="M355.26,782.78 C347.02,801.21 337.36,822.79 330.68,837.73 " fill="none" id="tensionSS-backto-magicAgency" style="stroke:#A80036;stroke-width:1.0;"/><polygon fill="#A80036" points="357.33,778.17,349.9985,784.7464,355.2847,782.7325,357.2985,788.0188,357.33,778.17" style="stroke:#A80036;stroke-width:1.0;"/><!--MD5=[0130c2d88f984243edb6e360ccd917a8]
link marriage to question4--><path d="M625.86,447.06 C595.63,467.55 547.18,500.39 521.24,517.97 " fill="none" id="marriage-to-question4" style="stroke:#A80036;stroke-width:1.0;"/><polygon fill="#A80036" points="516.98,520.87,526.6724,519.1215,521.116,518.0604,522.177,512.504,516.98,520.87" style="stroke:#A80036;stroke-width:1.0;"/><!--MD5=[3d13667125a271e351050e26b76ceb5e]
reverse link question4 to heroes--><path d="M486.75,544.81 C463.64,562.5 421.83,594.49 395.43,614.69 " fill="none" id="question4-backto-heroes" style="stroke:#A80036;stroke-width:1.0;"/><polygon fill="#A80036" points="490.84,541.68,481.2631,543.9786,486.871,544.721,486.1287,550.3289,490.84,541.68" style="stroke:#A80036;stroke-width:1.0;"/><!--MD5=[700d7dec5f9b5097f4551326839c4067]
link marriage to tensionSS--><path d="M636.18,447.33 C590.93,498.13 463.29,641.44 403.34,708.75 " fill="none" id="marriage-to-tensionSS" style="stroke:#A80036;stroke-width:1.0;"/><polygon fill="#A80036" points="399.84,712.68,408.8176,708.6299,403.1698,708.9501,402.8497,703.3023,399.84,712.68" style="stroke:#A80036;stroke-width:1.0;"/><!--MD5=[250e130e58ba0f231b21d0692e1c7215]
link conflictOverMagic to magicAgency--><path d="M211,555.05 C220.09,599.41 242.73,699.23 276.5,778 C284.87,797.51 297.2,818.14 307,833.28 " fill="none" id="conflictOverMagic-to-magicAgency" style="stroke:#A80036;stroke-width:1.0;"/><polygon fill="#A80036" points="309.95,837.79,308.3628,828.0699,307.2095,833.6079,301.6715,832.4546,309.95,837.79" style="stroke:#A80036;stroke-width:1.0;"/><!--MD5=[59473c3e5e5bdc953014b92be00083bc]
link conflictOverMagic to heroes--><path d="M244.35,555.17 C272.42,572.35 310.34,595.56 337.45,612.16 " fill="none" id="conflictOverMagic-to-heroes" style="stroke:#A80036;stroke-width:1.0;"/><polygon fill="#A80036" points="342.04,614.97,336.4639,606.8517,337.7793,612.3535,332.2775,613.6689,342.04,614.97" style="stroke:#A80036;stroke-width:1.0;"/><!--MD5=[e179e96b1b427378387e43c19bf5adda]
reverse link nivanaArc to conflictOverMagic--><path d="M252.32,218.16 C243.52,278.05 218.92,445.48 209.88,506.97 " fill="none" id="nivanaArc-backto-conflictOverMagic" style="stroke:#A80036;stroke-width:1.0;"/><polygon fill="#A80036" points="253.07,213.04,247.8003,221.3605,252.3409,217.9866,255.7148,222.5271,253.07,213.04" style="stroke:#A80036;stroke-width:1.0;"/><!--MD5=[11d22143428a4649e8df76d61c6d0946]
reverse link jamesSearching to heroes--><path d="M454.25,81.34 C438.92,183.55 386.72,531.54 374.21,614.93 " fill="none" id="jamesSearching-backto-heroes" style="stroke:#A80036;stroke-width:1.0;"/><polygon fill="#A80036" points="455.04,76.09,449.7468,84.3956,454.2969,81.0345,457.658,85.5845,455.04,76.09" style="stroke:#A80036;stroke-width:1.0;"/><!--MD5=[fdc39d6d6a8d8e7612b11abf4dcffad2]
link nivanaArc to nivanaEnvy--><path d="M288.88,211.27 C339.38,233.63 435.24,276.06 491.1,300.79 " fill="none" id="nivanaArc-to-nivanaEnvy" style="stroke:#A80036;stroke-width:1.0;"/><polygon fill="#A80036" points="495.72,302.83,489.0969,295.5406,491.1445,300.8139,485.8712,302.8615,495.72,302.83" style="stroke:#A80036;stroke-width:1.0;"/><!--MD5=[0ea4ba5aa9fc063f560378219e683ed4]
reverse link nivanaEnvy to marriage--><path d="M559.23,344.01 C580.78,363.18 611.65,390.65 631.88,408.66 " fill="none" id="nivanaEnvy-backto-marriage" style="stroke:#A80036;stroke-width:1.0;"/><polygon fill="#A80036" points="555.32,340.53,559.3892,349.4989,559.057,343.8518,564.7041,343.5196,555.32,340.53" style="stroke:#A80036;stroke-width:1.0;"/><!--MD5=[aefed5ac8914bfd74607614640db67fa]
link nivanaArc to question2--><path d="M260.03,213.08 C271.44,254.84 301.33,364.16 313.36,408.21 " fill="none" id="nivanaArc-to-question2" style="stroke:#A80036;stroke-width:1.0;"/><polygon fill="#A80036" points="314.74,413.25,316.2091,403.5113,313.4136,408.4292,308.4957,405.6336,314.74,413.25" style="stroke:#A80036;stroke-width:1.0;"/><!--MD5=[ca83f8705876c2d17ec17b6f19ff3a15]
reverse link question2 to heroes--><path d="M323.43,447.98 C333.61,487.15 356.81,576.45 366.79,614.87 " fill="none" id="question2-backto-heroes" style="stroke:#A80036;stroke-width:1.0;"/><polygon fill="#A80036" points="322.14,443.02,320.5366,452.7375,323.3998,447.8587,328.2786,450.7218,322.14,443.02" style="stroke:#A80036;stroke-width:1.0;"/><!--MD5=[ab8b870e1d574d80812d405610efebc4]
link nivanaArc to question3--><path d="M233.24,212.39 C204.82,232.68 155.23,268.08 120.72,292.72 " fill="none" id="nivanaArc-to-question3" style="stroke:#A80036;stroke-width:1.0;"/><polygon fill="#A80036" points="116.59,295.67,126.2412,293.7066,120.6625,292.7692,121.5999,287.1906,116.59,295.67" style="stroke:#A80036;stroke-width:1.0;"/><!--MD5=[4556e8359691ba82dbc51ffed3b3940a]
reverse link question3 to magicAgency--><path d="M81.49,354.57 C80.3,395.52 78.5,467.95 78.5,530 C78.5,530 78.5,530 78.5,635 C78.5,739.73 203.53,807.77 274.58,837.98 " fill="none" id="question3-backto-magicAgency" style="stroke:#A80036;stroke-width:1.0;"/><polygon fill="#A80036" points="81.64,349.25,77.3839,358.1317,81.4968,354.2479,85.3806,358.3609,81.64,349.25" style="stroke:#A80036;stroke-width:1.0;"/><!--MD5=[7ab0e2895595f854a5d01b7f58ad7537]
link question4 to nivanaEnvy--><path d="M505.59,515.95 C510.79,481.05 524.35,390.12 530.88,346.3 " fill="none" id="question4-to-nivanaEnvy" style="stroke:#A80036;stroke-width:1.0;"/><polygon fill="#A80036" points="531.64,341.2,526.3468,349.5056,530.8969,346.1445,534.258,350.6945,531.64,341.2" style="stroke:#A80036;stroke-width:1.0;"/><!--MD5=[7b6b654635f8a6be071a12b8cd62740b]
@startuml
skinparam componentStyle rectangle

(Nivana Story Arc) as nivanaArc
[James and Adelle Marriage] as marriage
[Band of Heroes] as heroes
[Magic Agency] as magicAgency
(James Searching for Friends) as jamesSearching
(James Employed by Agency) as jamesEmployed
(James and Adelle Meet) as jamesAndAdelleMeet
cloud "Conflict over Magic" as conflictOverMagic
cloud "Tension between\nSecular and Sacred" as tensionSS
(Nivana Envies Adelle) as nivanaEnvy
(?) as question1
(?) as question2
(Nivana Hunted\nby Agency?) as question3
(?) as question4

jamesSearching - -> question1
question1 - -> jamesEmployed
question1 - -> jamesAndAdelleMeet
jamesAndAdelleMeet - -> marriage
jamesEmployed <- - magicAgency
jamesEmployed - -> marriage
heroes - -> tensionSS
tensionSS <- - magicAgency
marriage - -> question4
question4 <- - heroes
marriage - -> tensionSS
conflictOverMagic - -> magicAgency
conflictOverMagic - -> heroes
nivanaArc <- - conflictOverMagic
jamesSearching <- - heroes
nivanaArc - -> nivanaEnvy
nivanaEnvy <- - marriage
nivanaArc - -> question2
question2 <- - heroes
nivanaArc - -> question3
question3 <- - magicAgency
question4 - -> nivanaEnvy

note top of question1
What pulls James
back into the real world?

The impetus needs to be
connected to other nodes
end note

note top of question3
More particular
relationship
than Conflict
over Magic
end note

@enduml

PlantUML version 1.2021.11(Sat Oct 02 07:26:11 MDT 2021)
(GPL source distribution)
Java Runtime: OpenJDK Runtime Environment
JVM: OpenJDK 64-Bit Server VM
Default Encoding: Cp1252
Language: en
Country: US
--></g></svg>