<?xml version="1.0" encoding="UTF-8" standalone="no"?><svg xmlns="http://www.w3.org/2000/svg" xmlns:xlink="http://www.w3.org/1999/xlink" contentScriptType="application/ecmascript" contentStyleType="text/css" height="775px" preserveAspectRatio="none" style="width:996px;height:775px;background:#FFFFFF;" version="1.1" viewBox="0 0 996 775" width="996px" zoomAndPan="magnify"><defs><filter height="300%" id="f1ok8zfsb21iyb" width="300%" x="-1" y="-1"><feGaussianBlur result="blurOut" stdDeviation="2.0"/><feColorMatrix in="blurOut" result="blurOut2" type="matrix" values="0 0 0 0 0 0 0 0 0 0 0 0 0 0 0 0 0 0 .4 0"/><feOffset dx="4.0" dy="4.0" in="blurOut2" result="blurOut3"/><feBlend in="SourceGraphic" in2="blurOut3" mode="normal"/></filter></defs><g><ellipse cx="177.855" cy="130.671" fill="#FEFECE" filter="url(#f1ok8zfsb21iyb)" rx="76.355" ry="17.671" style="stroke:#A80036;stroke-width:1.5;"/><text fill="#000000" font-family="sans-serif" font-size="14" lengthAdjust="spacing" textLength="105" x="122.6233" y="135.1255">Nivana Story Arc</text><ellipse cx="592.0397" cy="339.3079" fill="#FEFECE" filter="url(#f1ok8zfsb21iyb)" rx="104.5397" ry="23.3079" style="stroke:#A80036;stroke-width:1.5;"/><text fill="#000000" font-family="sans-serif" font-size="14" lengthAdjust="spacing" textLength="171" x="506.5397" y="343.0365">James and Adelle Marriage</text><ellipse cx="379.2427" cy="538.1485" fill="#FEFECE" filter="url(#f1ok8zfsb21iyb)" rx="73.7427" ry="17.1485" style="stroke:#A80036;stroke-width:1.5;"/><text fill="#000000" font-family="sans-serif" font-size="14" lengthAdjust="spacing" textLength="98" x="327.2427" y="542.6651">Band of Heroes</text><ellipse cx="287.1531" cy="747.4306" fill="#FEFECE" filter="url(#f1ok8zfsb21iyb)" rx="70.1531" ry="16.4306" style="stroke:#A80036;stroke-width:1.5;"/><text fill="#000000" font-family="sans-serif" font-size="14" lengthAdjust="spacing" textLength="88" x="240.1531" y="751.9472">Magic Agency</text><ellipse cx="567.9905" cy="29.3981" fill="#FEFECE" filter="url(#f1ok8zfsb21iyb)" rx="104.9905" ry="23.3981" style="stroke:#A80036;stroke-width:1.5;"/><text fill="#000000" font-family="sans-serif" font-size="14" lengthAdjust="spacing" textLength="172" x="481.9905" y="33.1266">James Searching for Adelle</text><ellipse cx="877.7982" cy="231.7596" fill="#FEFECE" filter="url(#f1ok8zfsb21iyb)" rx="106.7982" ry="23.7596" style="stroke:#A80036;stroke-width:1.5;"/><text fill="#000000" font-family="sans-serif" font-size="14" lengthAdjust="spacing" textLength="176" x="789.7982" y="235.4882">James Employed by Agency</text><ellipse cx="641.9382" cy="232.0876" fill="#FEFECE" filter="url(#f1ok8zfsb21iyb)" rx="93.4382" ry="21.0876" style="stroke:#A80036;stroke-width:1.5;"/><text fill="#000000" font-family="sans-serif" font-size="14" lengthAdjust="spacing" textLength="146" x="568.9382" y="235.8162">James and Adelle Meet</text><ellipse cx="141.8351" cy="441.867" fill="#FEFECE" filter="url(#f1ok8zfsb21iyb)" rx="82.3351" ry="18.867" style="stroke:#A80036;stroke-width:1.5;"/><text fill="#000000" font-family="sans-serif" font-size="14" lengthAdjust="spacing" textLength="120" x="81.8351" y="445.5955">Conflict over Magic</text><ellipse cx="378.8736" cy="642.9034" fill="#FEFECE" filter="url(#f1ok8zfsb21iyb)" rx="99.8736" ry="27.9034" style="stroke:#A80036;stroke-width:1.5;"/><text fill="#000000" font-family="sans-serif" font-size="14" lengthAdjust="spacing" textLength="108" x="324.8736" y="637.8272">Tension between</text><text fill="#000000" font-family="sans-serif" font-size="14" lengthAdjust="spacing" textLength="125" x="316.3736" y="655.4366">Secular and Sacred</text><ellipse cx="379.2427" cy="339.6485" fill="#FEFECE" filter="url(#f1ok8zfsb21iyb)" rx="73.7427" ry="17.1485" style="stroke:#A80036;stroke-width:1.5;"/><text fill="#000000" font-family="sans-serif" font-size="14" lengthAdjust="spacing" textLength="98" x="327.2427" y="344.1651">Ignoring friends</text><ellipse cx="353.8923" cy="231.8785" fill="#FEFECE" filter="url(#f1ok8zfsb21iyb)" rx="87.3923" ry="19.8785" style="stroke:#A80036;stroke-width:1.5;"/><text fill="#000000" font-family="sans-serif" font-size="14" lengthAdjust="spacing" textLength="132" x="287.8923" y="235.607">Nivana Envies Adelle</text><ellipse cx="485.7806" cy="442.0229" fill="#FEFECE" filter="url(#f1ok8zfsb21iyb)" rx="52.7806" ry="15.5229" style="stroke:#A80036;stroke-width:1.5;"/><text fill="#000000" font-family="sans-serif" font-size="14" lengthAdjust="spacing" textLength="58" x="453.7806" y="446.5395">Nepotism</text><ellipse cx="641.8704" cy="130.3963" fill="#FEFECE" filter="url(#f1ok8zfsb21iyb)" rx="17.8704" ry="14.8963" style="stroke:#A80036;stroke-width:1.5;"/><text fill="#000000" font-family="sans-serif" font-size="14" lengthAdjust="spacing" textLength="8" x="637.8704" y="134.1248">?</text><!--MD5=[70285fa90570b7b357eaed7c370d6c03]
link jamesSearching to question1--><path d="M584.79,52.96 C598.43,71.22 617.36,96.54 629.65,112.97 " fill="none" id="jamesSearching-to-question1" style="stroke:#A80036;stroke-width:1.0;"/><polygon fill="#A80036" points="632.92,117.36,630.742,107.755,629.9292,113.3531,624.331,112.5403,632.92,117.36" style="stroke:#A80036;stroke-width:1.0;"/><!--MD5=[f80228f0c254b9ba4a5a04530cb89b2d]
link question1 to jamesEmployed--><path d="M657.85,138.18 C691.36,152.31 770.71,185.76 824.4,208.4 " fill="none" id="question1-to-jamesEmployed" style="stroke:#A80036;stroke-width:1.0;"/><polygon fill="#A80036" points="829.19,210.42,822.4365,203.2513,824.5789,208.4868,819.3434,210.6291,829.19,210.42" style="stroke:#A80036;stroke-width:1.0;"/><!--MD5=[e57d4f3dadaac5c6e7eb5222346d4f35]
link question1 to jamesAndAdelleMeet--><path d="M642,145.76 C642,161.38 642,186.73 642,205.74 " fill="none" id="question1-to-jamesAndAdelleMeet" style="stroke:#A80036;stroke-width:1.0;"/><polygon fill="#A80036" points="642,210.92,646,201.92,642,205.92,638,201.92,642,210.92" style="stroke:#A80036;stroke-width:1.0;"/><!--MD5=[bdc1c65964da23d025ee776ff35e2517]
link jamesAndAdelleMeet to marriage--><path d="M632.36,253.34 C624.58,269.76 613.55,293.02 604.99,311.08 " fill="none" id="jamesAndAdelleMeet-to-marriage" style="stroke:#A80036;stroke-width:1.0;"/><polygon fill="#A80036" points="602.65,316.03,610.123,309.6148,604.7941,311.5131,602.8959,306.1842,602.65,316.03" style="stroke:#A80036;stroke-width:1.0;"/><!--MD5=[570b007b7e812eb2adfcfe7db85f52ce]
reverse link jamesEmployed to magicAgency--><path d="M867.01,261.08 C852.56,300.59 829,375.14 829,441 C829,441 829,441 829,539 C829,642.34 481.02,713.3 342.71,737.42 " fill="none" id="jamesEmployed-backto-magicAgency" style="stroke:#A80036;stroke-width:1.0;"/><polygon fill="#A80036" points="868.9,255.98,862.0393,263.0461,867.1741,260.6727,869.5476,265.8075,868.9,255.98" style="stroke:#A80036;stroke-width:1.0;"/><!--MD5=[342447fc50667165d6a146bba73ef3af]
link jamesEmployed to marriage--><path d="M824.21,252.84 C774.36,271.23 700.43,298.5 649.45,317.31 " fill="none" id="jamesEmployed-to-marriage" style="stroke:#A80036;stroke-width:1.0;"/><polygon fill="#A80036" points="644.59,319.1,654.4182,319.7379,649.281,317.3695,651.6494,312.2323,644.59,319.1" style="stroke:#A80036;stroke-width:1.0;"/><!--MD5=[0c0cd0cb5b0e84eadf7699dd219e52bf]
link heroes to tensionSS--><path d="M379,555.09 C379,569.68 379,591.6 379,609.78 " fill="none" id="heroes-to-tensionSS" style="stroke:#A80036;stroke-width:1.0;"/><polygon fill="#A80036" points="379,614.8,383,605.8,379,609.8,375,605.8,379,614.8" style="stroke:#A80036;stroke-width:1.0;"/><!--MD5=[c545f33ef43527deccd4d14f9703d673]
reverse link tensionSS to magicAgency--><path d="M351.59,674.54 C334.9,693.14 314.27,716.11 300.89,731.03 " fill="none" id="tensionSS-backto-magicAgency" style="stroke:#A80036;stroke-width:1.0;"/><polygon fill="#A80036" points="355.31,670.4,346.3161,674.4138,351.9652,674.1165,352.2625,679.7655,355.31,670.4" style="stroke:#A80036;stroke-width:1.0;"/><!--MD5=[e2954883eda047131a91999b295ed43a]
link marriage to nepotism--><path d="M568.74,362.56 C549.47,380.82 522.46,406.43 504.61,423.36 " fill="none" id="marriage-to-nepotism" style="stroke:#A80036;stroke-width:1.0;"/><polygon fill="#A80036" points="500.72,427.04,510.002,423.747,504.3471,423.5985,504.4956,417.9436,500.72,427.04" style="stroke:#A80036;stroke-width:1.0;"/><!--MD5=[41186115f273b9667b0e1cf86da2a09b]
link nepotism to heroes--><path d="M470.21,456.87 C451.9,472.96 421.6,499.58 400.99,517.69 " fill="none" id="nepotism-to-heroes" style="stroke:#A80036;stroke-width:1.0;"/><polygon fill="#A80036" points="397,521.19,406.4017,518.2561,400.7567,517.8904,401.1224,512.2454,397,521.19" style="stroke:#A80036;stroke-width:1.0;"/><!--MD5=[700d7dec5f9b5097f4551326839c4067]
link marriage to tensionSS--><path d="M588.66,363.04 C584.23,388.2 574.8,429.52 557,461 C521.41,523.92 458.36,580.52 417.64,613.06 " fill="none" id="marriage-to-tensionSS" style="stroke:#A80036;stroke-width:1.0;"/><polygon fill="#A80036" points="413.28,616.52,422.8231,614.085,417.2051,613.4227,417.8674,607.8048,413.28,616.52" style="stroke:#A80036;stroke-width:1.0;"/><!--MD5=[250e130e58ba0f231b21d0692e1c7215]
link conflictOverMagic to magicAgency--><path d="M150.64,461.08 C176.03,514.22 250.32,669.73 277.17,725.93 " fill="none" id="conflictOverMagic-to-magicAgency" style="stroke:#A80036;stroke-width:1.0;"/><polygon fill="#A80036" points="279.47,730.75,279.1987,720.9049,277.3142,726.2386,271.9805,724.3541,279.47,730.75" style="stroke:#A80036;stroke-width:1.0;"/><!--MD5=[e179e96b1b427378387e43c19bf5adda]
reverse link nivanaArc to conflictOverMagic--><path d="M175.45,153.45 C168.68,211.64 150.37,369.01 144.12,422.74 " fill="none" id="nivanaArc-backto-conflictOverMagic" style="stroke:#A80036;stroke-width:1.0;"/><polygon fill="#A80036" points="176.06,148.14,171.0316,156.6085,175.4733,153.1055,178.9763,157.5472,176.06,148.14" style="stroke:#A80036;stroke-width:1.0;"/><!--MD5=[6cd1dd05a855d0a29843e4c30ac28bda]
link jamesSearching to ignoringFriends--><path d="M559.81,53.23 C544.04,95.43 506.71,187.75 459,256 C442.21,280.02 418.35,303.64 401.06,319.4 " fill="none" id="jamesSearching-to-ignoringFriends" style="stroke:#A80036;stroke-width:1.0;"/><polygon fill="#A80036" points="397.25,322.84,406.609,319.7726,400.9594,319.4873,401.2447,313.8376,397.25,322.84" style="stroke:#A80036;stroke-width:1.0;"/><!--MD5=[7fe312570190c9b29174e830cd38ebf1]
reverse link ignoringFriends to heroes--><path d="M379,361.63 C379,401.2 379,485.67 379,520.97 " fill="none" id="ignoringFriends-backto-heroes" style="stroke:#A80036;stroke-width:1.0;"/><polygon fill="#A80036" points="379,356.58,375,365.58,379,361.58,383,365.58,379,356.58" style="stroke:#A80036;stroke-width:1.0;"/><!--MD5=[fdc39d6d6a8d8e7612b11abf4dcffad2]
link nivanaArc to nivanaEnvy--><path d="M205.5,147.05 C235.85,164.2 284.8,191.88 318.14,210.73 " fill="none" id="nivanaArc-to-nivanaEnvy" style="stroke:#A80036;stroke-width:1.0;"/><polygon fill="#A80036" points="322.53,213.21,316.6666,205.2967,318.1783,210.7478,312.7271,212.2595,322.53,213.21" style="stroke:#A80036;stroke-width:1.0;"/><!--MD5=[a621de22f022f04ba0a8aad224c6f1a5]
link nivanaEnvy to marriage--><path d="M392.5,250.07 C433,268.02 496.9,296.34 541.43,316.08 " fill="none" id="nivanaEnvy-to-marriage" style="stroke:#A80036;stroke-width:1.0;"/><polygon fill="#A80036" points="546.22,318.21,539.616,310.9033,541.6498,316.182,536.3711,318.2157,546.22,318.21" style="stroke:#A80036;stroke-width:1.0;"/><!--MD5=[5e1f409d087a6c7489bebbb4efab043b]
link nivanaArc to magicAgency--><path d="M151.12,147.02 C102.75,177.21 6,248.79 6,338.5 C6,338.5 6,338.5 6,539 C6,651.6 153.82,710.02 235.03,733.62 " fill="none" id="nivanaArc-to-magicAgency" style="stroke:#A80036;stroke-width:1.0;stroke-dasharray:7.0,7.0;"/><polygon fill="#A80036" points="240.28,735.12,232.7376,728.7866,235.4751,733.737,230.5247,736.4745,240.28,735.12" style="stroke:#A80036;stroke-width:1.0;"/><!--MD5=[1ef8b1695748333954e109464cb9cdf4]
link nivanaArc to heroes--><path d="M185.65,148.17 C203.26,186.38 248.17,283.16 288,363 C315.85,418.82 350.38,483.75 367.81,516.24 " fill="none" id="nivanaArc-to-heroes" style="stroke:#A80036;stroke-width:1.0;stroke-dasharray:7.0,7.0;"/><polygon fill="#A80036" points="370.26,520.79,369.5245,510.9686,367.8938,516.3854,362.477,514.7546,370.26,520.79" style="stroke:#A80036;stroke-width:1.0;"/><!--MD5=[2b1572a4f5423356457df8f6d76f584f]
@startuml

(Nivana Story Arc) as nivanaArc
(James and Adelle Marriage) as marriage
(Band of Heroes) as heroes
(Magic Agency) as magicAgency
(James Searching for Adelle) as jamesSearching
(James Employed by Agency) as jamesEmployed
(James and Adelle Meet) as jamesAndAdelleMeet
(Conflict over Magic) as conflictOverMagic
(Tension between\nSecular and Sacred) as tensionSS
(Ignoring friends) as ignoringFriends
(Nivana Envies Adelle) as nivanaEnvy
(Nepotism) as nepotism
(?) as question1

jamesSearching - -> question1
question1 - -> jamesEmployed
question1 - -> jamesAndAdelleMeet
jamesAndAdelleMeet - -> marriage
jamesEmployed <- - magicAgency
jamesEmployed - -> marriage
heroes - -> tensionSS
tensionSS <- - magicAgency
marriage - -> nepotism
nepotism - -> heroes
marriage - -> tensionSS
conflictOverMagic - -> magicAgency
nivanaArc <- - conflictOverMagic
jamesSearching - -> ignoringFriends
ignoringFriends <- - heroes
nivanaArc - -> nivanaEnvy
nivanaEnvy - -> marriage
nivanaArc ..> magicAgency
nivanaArc ..> heroes
@enduml

PlantUML version 1.2021.11(Sat Oct 02 07:26:11 MDT 2021)
(GPL source distribution)
Java Runtime: OpenJDK Runtime Environment
JVM: OpenJDK 64-Bit Server VM
Default Encoding: Cp1252
Language: en
Country: US
--></g></svg>